<svg width="48" height="48" viewBox="0 0 48 48" fill="none" xmlns="http://www.w3.org/2000/svg">
<path fill-rule="evenodd" clip-rule="evenodd" d="M23.9999 47C36.7026 47 47 36.7026 47 23.9999C47 11.2974 36.7026 1 23.9999 1C11.2974 1 1 11.2974 1 23.9999C1 36.7026 11.2974 47 23.9999 47Z" fill="#FF5036"/>
<path fill-rule="evenodd" clip-rule="evenodd" d="M23.9905 22.4328C23.9905 22.4328 23.6944 21.9435 23.0478 21.1038C22.4012 20.2639 21.4041 19.0736 20.0019 17.6715C18.4461 16.1157 16.4078 15.3367 14.3689 15.3342C12.3298 15.332 10.29 16.1062 8.73118 17.6573C7.21075 19.1701 6.44347 21.1571 6.41814 23.1617C6.39262 25.1661 7.10888 27.1883 8.55556 28.7716C12.7008 33.3079 18.3455 35.5761 23.9905 35.5761C29.6357 35.5761 35.2804 33.3079 39.4255 28.7716H39.4257C40.8723 27.1883 41.5886 25.1661 41.5631 23.1617C41.5377 21.1571 40.7705 19.1703 39.25 17.6573C37.6912 16.1062 35.6514 15.332 33.6123 15.3342C31.5734 15.3367 29.5349 16.1157 27.9793 17.6715C26.5771 19.0736 25.5798 20.2639 24.9332 21.1038C24.2866 21.9435 23.9905 22.4328 23.9905 22.4328Z" fill="white"/>
<path fill-rule="evenodd" clip-rule="evenodd" d="M11.0967 23.3138C11.0967 25.0505 12.5044 26.4584 14.2411 26.4584C15.9777 26.4584 17.3856 25.0505 17.3856 23.3138C17.3856 21.5772 15.9777 20.1694 14.2411 20.1694C12.5044 20.1694 11.0967 21.5772 11.0967 23.3138Z" fill="black"/>
<path fill-rule="evenodd" clip-rule="evenodd" d="M23.9905 22.4327C21.5592 24.864 21.5592 28.8059 23.9905 31.2372C26.4219 28.8059 26.4219 24.864 23.9905 22.4327Z" fill="black"/>
<path fill-rule="evenodd" clip-rule="evenodd" d="M36.8966 23.3138C36.8966 25.0505 35.4889 26.4584 33.7522 26.4584C32.0156 26.4584 30.6077 25.0505 30.6077 23.3138C30.6077 21.5772 32.0156 20.1694 33.7522 20.1694C35.4889 20.1694 36.8966 21.5772 36.8966 23.3138Z" fill="black"/>
</svg>
